NotoSerif-CondensedSemiBold.ufo
<glyph name="quotedbl" format="2">
  <advance width="424"/>
  <unicode hex="0022"/>
  <outline>
    <contour>
      <point x="275" y="452" type="line"/>
      <point x="330" y="452" type="line"/>
      <point x="368" y="714" type="line"/>
      <point x="237" y="714" type="line"/>
    </contour>
    <contour>
      <point x="94" y="452" type="line"/>
      <point x="149" y="452" type="line"/>
      <point x="187" y="714" type="line"/>
      <point x="56" y="714" type="line"/>
    </contour>
  </outline>
</glyph>
<glyph name="uni023B" format="2">
  <advance width="551"/>
  <unicode hex="023B"/>
  <anchor x="316" y="0" name="bottom"/>
  <anchor x="316" y="714" name="top"/>
  <anchor x="531" y="714" name="topright"/>
  <outline>
    <contour>
      <point x="156" y="-78" type="line"/>
      <point x="217" y="-78" type="line"/>
      <point x="440" y="760" type="line"/>
      <point x="381" y="760" type="line"/>
    </contour>
    <component base="C"/>
  </outline>
</glyph>
<glyph name="uni024C" format="2">
  <advance width="581"/>
  <unicode hex="024C"/>
  <anchor x="291.01" y="0" name="bottom"/>
  <anchor x="291.01" y="714" name="top"/>
  <anchor x="566" y="714" name="topright"/>
  <outline>
    <contour>
      <point x="11" y="313" type="line"/>
      <point x="111" y="313" type="line"/>
      <point x="111" y="367" type="line"/>
      <point x="11" y="367" type="line"/>
    </contour>
    <component base="R"/>
  </outline>
</glyph>
<glyph name="uni024F" format="2">
  <advance width="473"/>
  <unicode hex="024F"/>
  <anchor x="237" y="-230" name="bottom"/>
  <anchor x="237" y="536" name="top"/>
  <anchor x="480" y="536" name="topright"/>
  <outline>
    <contour>
      <point x="8" y="306" type="line"/>
      <point x="465" y="306" type="line"/>
      <point x="465" y="359" type="line"/>
      <point x="8" y="359" type="line"/>
    </contour>
    <component base="y"/>
  </outline>
</glyph>
<glyph name="xabovecomb" format="2">
  <unicode hex="033D"/>
  <anchor x="1" y="536" name="_top"/>
  <anchor x="1" y="753" name="top"/>
  <outline>
    <contour>
      <point x="-41" y="580" type="line"/>
      <point x="0" y="629" type="line"/>
      <point x="40" y="580" type="line"/>
      <point x="70" y="617" type="line"/>
      <point x="31" y="666" type="line"/>
      <point x="71" y="715" type="line"/>
      <point x="41" y="753" type="line"/>
      <point x="0" y="703" type="line"/>
      <point x="-41" y="753" type="line"/>
      <point x="-70" y="716" type="line"/>
      <point x="-31" y="666" type="line"/>
      <point x="-70" y="617" type="line"/>
    </contour>
  </outline>
</glyph>
<glyph name="arrowheadleftbelowcomb" format="2">
  <unicode hex="0354"/>
  <anchor x="0" y="0" name="_bottom"/>
  <anchor x="0" y="-240" name="bottom"/>
  <outline>
    <contour>
      <point x="69" y="-240" type="curve"/>
      <point x="78" y="-240" type="line"/>
      <point x="78" y="-189" type="line"/>
      <point x="58" y="-172"/>
      <point x="29" y="-153"/>
      <point x="2" y="-140" type="curve"/>
      <point x="33" y="-126"/>
      <point x="65" y="-103"/>
      <point x="78" y="-91" type="curve"/>
      <point x="78" y="-40" type="line"/>
      <point x="69" y="-40" type="line"/>
      <point x="16" y="-77"/>
      <point x="-28" y="-102"/>
      <point x="-78" y="-111" type="curve"/>
      <point x="-78" y="-169" type="line"/>
      <point x="-29" y="-184"/>
      <point x="17" y="-204"/>
    </contour>
  </outline>
</glyph>
<glyph name="arrowheadrightbelowcomb" format="2">
  <unicode hex="0355"/>
  <anchor x="0" y="0" name="_bottom"/>
  <anchor x="0" y="-240" name="bottom"/>
  <outline>
    <contour>
      <point x="-78" y="-189" type="curve"/>
      <point x="-78" y="-240" type="line"/>
      <point x="-69" y="-240" type="line"/>
      <point x="-17" y="-203"/>
      <point x="29" y="-178"/>
      <point x="78" y="-169" type="curve"/>
      <point x="78" y="-111" type="line"/>
      <point x="29" y="-96"/>
      <point x="-17" y="-76"/>
      <point x="-69" y="-40" type="curve"/>
      <point x="-78" y="-40" type="line"/>
      <point x="-78" y="-91" type="line"/>
      <point x="-58" y="-108"/>
      <point x="-29" y="-127"/>
      <point x="-1" y="-140" type="curve"/>
      <point x="-33" y="-154"/>
      <point x="-64" y="-177"/>
    </contour>
  </outline>
</glyph>
<glyph name="uni049E" format="2">
  <advance width="615"/>
  <unicode hex="049E"/>
  <anchor x="308" y="0" name="bottom"/>
  <anchor x="308" y="714" name="top"/>
  <outline>
    <contour>
      <point x="23" y="541" type="line"/>
      <point x="308" y="541" type="line"/>
      <point x="308" y="591" type="line"/>
      <point x="23" y="591" type="line"/>
    </contour>
    <component base="afii10028"/>
  </outline>
</glyph>
<glyph name="uni04C9" format="2">
  <advance width="670"/>
  <unicode hex="04C9"/>
  <anchor x="336" y="0" name="bottom"/>
  <anchor x="336" y="714" name="top"/>
  <anchor x="335" y="366" name="center"/>
  <anchor x="650" y="714" name="topright"/>
  <outline>
    <contour>
      <point x="526" y="-210" type="line"/>
      <point x="614" y="-210" type="line"/>
      <point x="665" y="32" type="line"/>
      <point x="665" y="49" type="line"/>
      <point x="598" y="49" type="line"/>
      <point x="601" y="3" type="line"/>
    </contour>
    <component base="H"/>
  </outline>
</glyph>
<glyph name="uni04FE" format="2">
  <advance width="604"/>
  <unicode hex="04FE"/>
  <anchor x="302" y="0" name="bottom"/>
  <anchor x="302" y="714" name="top"/>
  <anchor x="584" y="714" name="topright"/>
  <outline>
    <contour>
      <point x="96" y="346" type="line"/>
      <point x="515" y="346" type="line"/>
      <point x="515" y="397" type="line"/>
      <point x="96" y="397" type="line"/>
    </contour>
    <component base="X"/>
  </outline>
</glyph>
<glyph name="uni1ABF" format="2">
  <unicode hex="1ABF"/>
  <anchor x="0" y="0" name="_bottom"/>
  <outline>
    <contour>
      <point x="-41" y="-278" type="line"/>
      <point x="0" y="-134" type="line"/>
      <point x="39" y="-278" type="line"/>
      <point x="79" y="-278" type="line"/>
      <point x="127" y="-114" type="line" smooth="yes"/>
      <point x="134" y="-88"/>
      <point x="140" y="-83"/>
      <point x="155" y="-83" type="curve" smooth="yes"/>
      <point x="159" y="-83" type="line"/>
      <point x="159" y="-64" type="line"/>
      <point x="75" y="-64" type="line"/>
      <point x="75" y="-83" type="line"/>
      <point x="78" y="-83" type="line" smooth="yes"/>
      <point x="93" y="-83"/>
      <point x="101" y="-89"/>
      <point x="101" y="-103" type="curve" smooth="yes"/>
      <point x="101" y="-107"/>
      <point x="100" y="-116"/>
      <point x="98" y="-123" type="curve" smooth="yes"/>
      <point x="82" y="-184" type="line" smooth="yes"/>
      <point x="77" y="-202"/>
      <point x="75" y="-218"/>
      <point x="73" y="-230" type="curve"/>
      <point x="71" y="-230" type="line"/>
      <point x="70" y="-220"/>
      <point x="66" y="-197"/>
      <point x="62" y="-183" type="curve" smooth="yes"/>
      <point x="27" y="-65" type="line"/>
      <point x="3" y="-65" type="line"/>
      <point x="-34" y="-182" type="line" smooth="yes"/>
      <point x="-38" y="-196"/>
      <point x="-44" y="-218"/>
      <point x="-46" y="-230" type="curve"/>
      <point x="-47" y="-230" type="line"/>
      <point x="-49" y="-218"/>
      <point x="-54" y="-194"/>
      <point x="-58" y="-174" type="curve" smooth="yes"/>
      <point x="-70" y="-118" type="line" smooth="yes"/>
      <point x="-71" y="-112"/>
      <point x="-73" y="-104"/>
      <point x="-73" y="-100" type="curve" smooth="yes"/>
      <point x="-73" y="-87"/>
      <point x="-65" y="-83"/>
      <point x="-51" y="-83" type="curve" smooth="yes"/>
      <point x="-47" y="-83" type="line"/>
      <point x="-47" y="-64" type="line"/>
      <point x="-156" y="-64" type="line"/>
      <point x="-156" y="-83" type="line"/>
      <point x="-155" y="-83" type="line" smooth="yes"/>
      <point x="-141" y="-83"/>
      <point x="-133" y="-87"/>
      <point x="-129" y="-104" type="curve" smooth="yes"/>
      <point x="-82" y="-278" type="line"/>
    </contour>
  </outline>
</glyph>
<glyph name="uni1AC0" format="2">
  <unicode hex="1AC0"/>
  <anchor x="0" y="0" name="_bottom"/>
  <outline>
    <contour>
      <point x="41" y="-64" type="line"/>
      <point x="0" y="-208" type="line"/>
      <point x="-39" y="-64" type="line"/>
      <point x="-79" y="-64" type="line"/>
      <point x="-127" y="-228" type="line" smooth="yes"/>
      <point x="-134" y="-254"/>
      <point x="-140" y="-259"/>
      <point x="-155" y="-259" type="curve" smooth="yes"/>
      <point x="-159" y="-259" type="line"/>
      <point x="-159" y="-278" type="line"/>
      <point x="-75" y="-278" type="line"/>
      <point x="-75" y="-259" type="line"/>
      <point x="-78" y="-259" type="line" smooth="yes"/>
      <point x="-93" y="-259"/>
      <point x="-101" y="-253"/>
      <point x="-101" y="-239" type="curve" smooth="yes"/>
      <point x="-101" y="-235"/>
      <point x="-100" y="-226"/>
      <point x="-98" y="-219" type="curve" smooth="yes"/>
      <point x="-82" y="-158" type="line" smooth="yes"/>
      <point x="-77" y="-140"/>
      <point x="-75" y="-124"/>
      <point x="-73" y="-112" type="curve"/>
      <point x="-71" y="-112" type="line"/>
      <point x="-70" y="-122"/>
      <point x="-66" y="-145"/>
      <point x="-62" y="-159" type="curve" smooth="yes"/>
      <point x="-27" y="-277" type="line"/>
      <point x="-3" y="-277" type="line"/>
      <point x="34" y="-160" type="line" smooth="yes"/>
      <point x="38" y="-146"/>
      <point x="44" y="-124"/>
      <point x="46" y="-112" type="curve"/>
      <point x="47" y="-112" type="line"/>
      <point x="49" y="-124"/>
      <point x="54" y="-148"/>
      <point x="58" y="-168" type="curve" smooth="yes"/>
      <point x="70" y="-224" type="line" smooth="yes"/>
      <point x="71" y="-230"/>
      <point x="73" y="-238"/>
      <point x="73" y="-242" type="curve" smooth="yes"/>
      <point x="73" y="-255"/>
      <point x="65" y="-259"/>
      <point x="51" y="-259" type="curve" smooth="yes"/>
      <point x="47" y="-259" type="line"/>
      <point x="47" y="-278" type="line"/>
      <point x="156" y="-278" type="line"/>
      <point x="156" y="-259" type="line"/>
      <point x="155" y="-259" type="line" smooth="yes"/>
      <point x="141" y="-259"/>
      <point x="133" y="-255"/>
      <point x="129" y="-238" type="curve" smooth="yes"/>
      <point x="82" y="-64" type="line"/>
    </contour>
  </outline>
</glyph>
<glyph name="uni1D2F" format="2">
  <advance width="370"/>
  <unicode hex="1D2F"/>
  <anchor x="185" y="287" name="bottom"/>
  <anchor x="185" y="715" name="top"/>
  <anchor x="356.85" y="715.4" name="topright"/>
  <outline>
    <contour>
      <point x="7" y="494" type="line"/>
      <point x="362" y="494" type="line"/>
      <point x="362" y="529" type="line"/>
      <point x="7" y="529" type="line"/>
    </contour>
    <component base="B" xScale="0.65" yScale="0.6" yOffset="287"/>
  </outline>
</glyph>
<glyph name="uni1D6F" format="2">
  <advance width="808"/>
  <unicode hex="1D6F"/>
  <anchor x="443" y="0" name="bottom"/>
  <anchor x="435" y="536" name="top"/>
  <anchor x="787" y="536" name="topright"/>
  <outline>
    <contour>
      <point x="-25" y="198" type="curve"/>
      <point x="29" y="198" type="line"/>
      <point x="31" y="231"/>
      <point x="44" y="266"/>
      <point x="96" y="266" type="curve" smooth="yes"/>
      <point x="244" y="266"/>
      <point x="540" y="192"/>
      <point x="707" y="192" type="curve" smooth="yes"/>
      <point x="806" y="192"/>
      <point x="838" y="267"/>
      <point x="840" y="346" type="curve"/>
      <point x="784" y="346" type="line"/>
      <point x="783" y="312"/>
      <point x="769" y="278"/>
      <point x="718" y="278" type="curve" smooth="yes"/>
      <point x="561" y="278"/>
      <point x="263" y="351"/>
      <point x="109" y="351" type="curve" smooth="yes"/>
      <point x="10" y="351"/>
      <point x="-24" y="276"/>
    </contour>
    <component base="m"/>
  </outline>
</glyph>
<glyph name="uni1D7A" format="2">
  <advance width="893"/>
  <unicode hex="1D7A"/>
  <anchor x="205" y="0" name="bottom_1"/>
  <anchor x="603" y="0" name="bottom_2"/>
  <anchor x="159" y="268" name="center_1"/>
  <anchor x="603" y="268" name="center_2"/>
  <anchor x="167" y="659" name="top_1"/>
  <anchor x="467" y="760" name="top_2"/>
  <anchor x="210" y="990" name="topright_1"/>
  <anchor x="824" y="760" name="topright_2"/>
  <outline>
    <contour>
      <point x="29" y="-110" type="line"/>
      <point x="104" y="-110" type="line"/>
      <point x="725" y="760" type="line"/>
      <point x="650" y="760" type="line"/>
    </contour>
    <component base="t"/>
    <component base="h" xOffset="330"/>
  </outline>
</glyph>
<glyph name="uni1D7D" format="2">
  <advance width="529"/>
  <unicode hex="1D7D"/>
  <anchor x="149" y="-230" name="bottom"/>
  <anchor x="265" y="536" name="top"/>
  <anchor x="516" y="536" name="topright"/>
  <outline>
    <contour>
      <point x="-1" y="238" type="line"/>
      <point x="545" y="238" type="line"/>
      <point x="545" y="294" type="line"/>
      <point x="-1" y="294" type="line"/>
    </contour>
    <component base="p"/>
  </outline>
</glyph>
<glyph name="uni1D7F" format="2">
  <advance width="503"/>
  <unicode hex="1D7F"/>
  <anchor x="253" y="0" name="bottom"/>
  <anchor x="253" y="536" name="top"/>
  <outline>
    <contour>
      <point x="3" y="254" type="line"/>
      <point x="500" y="254" type="line"/>
      <point x="500" y="307" type="line"/>
      <point x="3" y="307" type="line"/>
    </contour>
    <component base="uni028A"/>
  </outline>
</glyph>
<glyph name="uni1D88" format="2">
  <advance width="529"/>
  <unicode hex="1D88"/>
  <anchor x="149" y="-230" name="bottom"/>
  <anchor x="265" y="536" name="top"/>
  <anchor x="516" y="536" name="topright"/>
  <outline>
    <contour>
      <point x="369" y="-202" type="curve" smooth="yes"/>
      <point x="432" y="-202"/>
      <point x="463" y="-142"/>
      <point x="463" y="-37" type="curve" smooth="yes"/>
      <point x="463" y="111" type="line"/>
      <point x="409" y="111" type="line"/>
      <point x="409" y="-41" type="line" smooth="yes"/>
      <point x="409" y="-98"/>
      <point x="391" y="-120"/>
      <point x="357" y="-120" type="curve" smooth="yes"/>
      <point x="340" y="-120"/>
      <point x="329" y="-113"/>
      <point x="318" y="-104" type="curve"/>
      <point x="311" y="-112"/>
      <point x="306" y="-125"/>
      <point x="306" y="-141" type="curve" smooth="yes"/>
      <point x="306" y="-181"/>
      <point x="331" y="-202"/>
    </contour>
    <component base="p"/>
  </outline>
</glyph>
<glyph name="second" format="2">
  <advance width="408"/>
  <unicode hex="2033"/>
  <outline>
    <contour>
      <point x="203" y="479" type="line"/>
      <point x="273" y="479" type="line"/>
      <point x="388" y="714" type="line"/>
      <point x="245" y="714" type="line"/>
    </contour>
    <contour>
      <point x="20" y="479" type="line"/>
      <point x="90" y="479" type="line"/>
      <point x="205" y="714" type="line"/>
      <point x="62" y="714" type="line"/>
    </contour>
  </outline>
</glyph>
<glyph name="uni2034" format="2">
  <advance width="591"/>
  <unicode hex="2034"/>
  <outline>
    <contour>
      <point x="386" y="479" type="line"/>
      <point x="456" y="479" type="line"/>
      <point x="571" y="714" type="line"/>
      <point x="428" y="714" type="line"/>
    </contour>
    <contour>
      <point x="20" y="479" type="line"/>
      <point x="90" y="479" type="line"/>
      <point x="205" y="714" type="line"/>
      <point x="62" y="714" type="line"/>
    </contour>
    <contour>
      <point x="203" y="479" type="line"/>
      <point x="273" y="479" type="line"/>
      <point x="388" y="714" type="line"/>
      <point x="245" y="714" type="line"/>
    </contour>
  </outline>
</glyph>
<glyph name="tripleprimeReversed" format="2">
  <advance width="591"/>
  <unicode hex="2037"/>
  <outline>
    <contour>
      <point x="501" y="479" type="line"/>
      <point x="571" y="479" type="line"/>
      <point x="529" y="714" type="line"/>
      <point x="386" y="714" type="line"/>
    </contour>
    <contour>
      <point x="135" y="479" type="line"/>
      <point x="205" y="479" type="line"/>
      <point x="163" y="714" type="line"/>
      <point x="20" y="714" type="line"/>
    </contour>
    <contour>
      <point x="318" y="479" type="line"/>
      <point x="388" y="479" type="line"/>
      <point x="346" y="714" type="line"/>
      <point x="203" y="714" type="line"/>
    </contour>
  </outline>
</glyph>
<glyph name="quadrupleprime" format="2">
  <advance width="774"/>
  <unicode hex="2057"/>
  <outline>
    <contour>
      <point x="569" y="479" type="line"/>
      <point x="639" y="479" type="line"/>
      <point x="754" y="714" type="line"/>
      <point x="611" y="714" type="line"/>
    </contour>
    <contour>
      <point x="20" y="479" type="line"/>
      <point x="91" y="479" type="line"/>
      <point x="205" y="714" type="line"/>
      <point x="62" y="714" type="line"/>
    </contour>
    <contour>
      <point x="203" y="479" type="line"/>
      <point x="273" y="479" type="line"/>
      <point x="388" y="714" type="line"/>
      <point x="245" y="714" type="line"/>
    </contour>
    <contour>
      <point x="386" y="479" type="line"/>
      <point x="457" y="479" type="line"/>
      <point x="572" y="714" type="line"/>
      <point x="428" y="714" type="line"/>
    </contour>
  </outline>
</glyph>
<glyph name="Euro" format="2">
  <advance width="456"/>
  <unicode hex="20AC"/>
  <outline>
    <contour>
      <point x="288" y="-10" type="curve" smooth="yes"/>
      <point x="398" y="-10"/>
      <point x="439" y="45"/>
      <point x="439" y="91" type="curve" smooth="yes"/>
      <point x="439" y="107"/>
      <point x="433" y="124"/>
      <point x="420" y="134" type="curve"/>
      <point x="401" y="92"/>
      <point x="362" y="59"/>
      <point x="310" y="59" type="curve" smooth="yes"/>
      <point x="234" y="59"/>
      <point x="198" y="125"/>
      <point x="191" y="257" type="curve"/>
      <point x="309" y="257" type="line"/>
      <point x="309" y="313" type="line"/>
      <point x="187" y="313" type="line"/>
      <point x="187" y="379" type="line"/>
      <point x="342" y="379" type="line"/>
      <point x="342" y="436" type="line"/>
      <point x="191" y="436" type="line"/>
      <point x="199" y="609"/>
      <point x="233" y="664"/>
      <point x="279" y="664" type="curve" smooth="yes"/>
      <point x="325" y="664"/>
      <point x="338" y="615"/>
      <point x="338" y="546" type="curve"/>
      <point x="405" y="546"/>
      <point x="443" y="565"/>
      <point x="443" y="612" type="curve" smooth="yes"/>
      <point x="443" y="673"/>
      <point x="385" y="722"/>
      <point x="287" y="722" type="curve" smooth="yes"/>
      <point x="167" y="722"/>
      <point x="84" y="644"/>
      <point x="67" y="436" type="curve"/>
      <point x="20" y="436" type="line"/>
      <point x="20" y="379" type="line"/>
      <point x="62" y="379" type="line"/>
      <point x="62" y="313" type="line"/>
      <point x="20" y="313" type="line"/>
      <point x="20" y="257" type="line"/>
      <point x="68" y="257" type="line"/>
      <point x="87" y="58"/>
      <point x="171" y="-10"/>
    </contour>
  </outline>
</glyph>
<glyph name="uni20AD" format="2">
  <advance width="616"/>
  <unicode hex="20AD"/>
  <anchor x="338" y="0" name="bottom"/>
  <anchor x="328" y="714" name="top"/>
  <anchor x="596" y="714" name="topright"/>
  <outline>
    <contour>
      <point x="13" y="344" type="line"/>
      <point x="546" y="344" type="line"/>
      <point x="546" y="401" type="line"/>
      <point x="13" y="401" type="line"/>
    </contour>
    <component base="K"/>
  </outline>
</glyph>
<glyph name="uni20B2" format="2">
  <advance width="632"/>
  <unicode hex="20B2"/>
  <anchor x="343" y="0" name="bottom"/>
  <anchor x="352" y="714" name="top"/>
  <anchor x="612" y="714" name="topright"/>
  <outline>
    <contour>
      <point x="309" y="-79" type="line"/>
      <point x="357" y="-79" type="line"/>
      <point x="357" y="780" type="line"/>
      <point x="309" y="780" type="line"/>
    </contour>
    <component base="G"/>
  </outline>
</glyph>
<glyph name="uni20B5" format="2">
  <advance width="551"/>
  <unicode hex="20B5"/>
  <anchor x="316" y="0" name="bottom"/>
  <anchor x="326" y="714" name="top"/>
  <anchor x="531" y="714" name="topright"/>
  <outline>
    <contour>
      <point x="293" y="-80" type="line"/>
      <point x="338" y="-80" type="line"/>
      <point x="338" y="780" type="line"/>
      <point x="293" y="780" type="line"/>
    </contour>
    <component base="C"/>
  </outline>
</glyph>
<glyph name="response" format="2">
  <advance width="582"/>
  <unicode hex="211F"/>
  <anchor x="323" y="0" name="bottom"/>
  <anchor x="293" y="714" name="top"/>
  <anchor x="566" y="714" name="topright"/>
  <outline>
    <contour>
      <point x="82" y="-125" type="line"/>
      <point x="146" y="-123" type="line"/>
      <point x="433" y="800" type="line"/>
      <point x="242" y="884" type="line"/>
      <point x="219" y="825" type="line"/>
      <point x="358" y="764" type="line"/>
    </contour>
    <component base="R"/>
  </outline>
</glyph>
<glyph name="versicle" format="2">
  <advance width="571"/>
  <unicode hex="2123"/>
  <anchor x="286" y="0" name="bottom"/>
  <anchor x="316" y="714" name="top"/>
  <anchor x="551" y="714" name="topright"/>
  <outline>
    <contour>
      <point x="82" y="-125" type="line"/>
      <point x="146" y="-123" type="line"/>
      <point x="433" y="800" type="line"/>
      <point x="242" y="884" type="line"/>
      <point x="219" y="825" type="line"/>
      <point x="358" y="764" type="line"/>
    </contour>
    <component base="V"/>
  </outline>
</glyph>
<glyph name="olowringinside" format="2">
  <advance width="503"/>
  <unicode hex="2C7A"/>
  <anchor x="252" y="0" name="bottom"/>
  <anchor x="252" y="536" name="top"/>
  <outline>
    <contour>
      <point x="250" y="-10" type="curve" smooth="yes"/>
      <point x="392" y="-10"/>
      <point x="465" y="81"/>
      <point x="465" y="269" type="curve" smooth="yes"/>
      <point x="465" y="457"/>
      <point x="384" y="548"/>
      <point x="253" y="548" type="curve" smooth="yes"/>
      <point x="111" y="548"/>
      <point x="37" y="457"/>
      <point x="37" y="269" type="curve" smooth="yes"/>
      <point x="37" y="81"/>
      <point x="118" y="-10"/>
    </contour>
    <contour>
      <point x="252" y="50" type="curve" smooth="yes"/>
      <point x="223" y="50"/>
      <point x="206.01" y="70.99"/>
      <point x="206" y="109" type="curve" smooth="yes"/>
      <point x="206" y="145"/>
      <point x="223" y="164"/>
      <point x="252" y="164" type="curve" smooth="yes"/>
      <point x="280" y="164"/>
      <point x="298" y="145"/>
      <point x="298" y="109" type="curve" smooth="yes"/>
      <point x="298" y="71"/>
      <point x="280" y="50"/>
    </contour>
    <contour>
      <point x="179" y="147" type="curve"/>
      <point x="173" y="172"/>
      <point x="170" y="209"/>
      <point x="170" y="269" type="curve" smooth="yes"/>
      <point x="170" y="415"/>
      <point x="191" y="488"/>
      <point x="251" y="488" type="curve" smooth="yes"/>
      <point x="312" y="488"/>
      <point x="333" y="415"/>
      <point x="333" y="269" type="curve" smooth="yes"/>
      <point x="333" y="209"/>
      <point x="330" y="171"/>
      <point x="324" y="147" type="curve"/>
      <point x="320" y="193"/>
      <point x="294" y="224"/>
      <point x="252" y="224" type="curve" smooth="yes"/>
      <point x="212" y="224"/>
      <point x="186" y="194"/>
    </contour>
  </outline>
</glyph>
<glyph name="downwardsancora" format="2">
  <advance width="611"/>
  <unicode hex="2E14"/>
  <outline>
    <contour>
      <point x="370" y="83" type="curve"/>
      <point x="342" y="117" type="line"/>
      <point x="298" y="97"/>
      <point x="257" y="104"/>
      <point x="212" y="151" type="curve"/>
      <point x="529" y="539" type="line"/>
      <point x="504" y="569" type="line"/>
      <point x="188" y="181" type="line"/>
      <point x="163" y="217"/>
      <point x="152" y="251"/>
      <point x="152" y="285" type="curve" smooth="yes"/>
      <point x="152" y="303"/>
      <point x="155" y="322"/>
      <point x="161" y="341" type="curve"/>
      <point x="133" y="375" type="line"/>
      <point x="121" y="344"/>
      <point x="116" y="315"/>
      <point x="116" y="287" type="curve" smooth="yes"/>
      <point x="116" y="232"/>
      <point x="139" y="181"/>
      <point x="176" y="136" type="curve" smooth="yes"/>
      <point x="232" y="68"/>
      <point x="295" y="42"/>
    </contour>
  </outline>
</glyph>
<glyph name="upwardsancora" format="2">
  <advance width="611"/>
  <unicode hex="2E15"/>
  <outline>
    <contour>
      <point x="123" y="42" type="line"/>
      <point x="440" y="430" type="line"/>
      <point x="478" y="375"/>
      <point x="483" y="325"/>
      <point x="467" y="270" type="curve"/>
      <point x="495" y="236" type="line"/>
      <point x="529" y="328"/>
      <point x="508" y="407"/>
      <point x="452" y="475" type="curve" smooth="yes"/>
      <point x="396" y="543"/>
      <point x="332" y="569"/>
      <point x="257" y="528" type="curve"/>
      <point x="285" y="494" type="line"/>
      <point x="329" y="514"/>
      <point x="370" y="507"/>
      <point x="415" y="460" type="curve"/>
      <point x="99" y="72" type="line"/>
    </contour>
  </outline>
</glyph>
<glyph name="uni2E4C" format="2">
  <advance width="292"/>
  <unicode hex="2E4C"/>
  <outline>
    <contour>
      <point x="128" y="137" type="curve" smooth="yes"/>
      <point x="91" y="137"/>
      <point x="60" y="119"/>
      <point x="60" y="64" type="curve" smooth="yes"/>
      <point x="60" y="8"/>
      <point x="91" y="-9"/>
      <point x="128" y="-9" type="curve" smooth="yes"/>
      <point x="166" y="-9"/>
      <point x="195" y="8"/>
      <point x="195" y="64" type="curve" smooth="yes"/>
      <point x="195" y="119"/>
      <point x="166" y="137"/>
    </contour>
    <component base="uni2E45" xScale="0" xyScale="-1" yxScale="1" yScale="0" xOffset="-142" yOffset="591"/>
  </outline>
</glyph>
<glyph name="uniA680" format="2">
  <advance width="581"/>
  <unicode hex="A680"/>
  <anchor x="290" y="0" name="bottom"/>
  <anchor x="290" y="714" name="top"/>
  <outline>
    <contour>
      <point x="206" y="714" type="line"/>
      <point x="261" y="714" type="line"/>
      <point x="261" y="855" type="line"/>
      <point x="206" y="855" type="line"/>
    </contour>
    <component base="afii10021"/>
  </outline>
</glyph>
<glyph name="uniA681" format="2">
  <advance width="514"/>
  <unicode hex="A681"/>
  <anchor x="257" y="0" name="bottom"/>
  <anchor x="257" y="536" name="top"/>
  <outline>
    <contour>
      <point x="159" y="536" type="line"/>
      <point x="211" y="536" type="line"/>
      <point x="217" y="659" type="line"/>
      <point x="166" y="659" type="line"/>
    </contour>
    <component base="afii10069"/>
  </outline>
</glyph>
<glyph name="uniA742" format="2">
  <advance width="616"/>
  <unicode hex="A742"/>
  <anchor x="338" y="0" name="bottom"/>
  <anchor x="328" y="714" name="top"/>
  <anchor x="596" y="714" name="topright"/>
  <outline>
    <contour>
      <point x="300" y="115" type="line"/>
      <point x="516" y="303" type="line"/>
      <point x="486" y="338" type="line"/>
      <point x="269" y="153" type="line"/>
    </contour>
    <component base="K"/>
  </outline>
</glyph>
<glyph name="uniA744" format="2">
  <advance width="616"/>
  <unicode hex="A744"/>
  <anchor x="338" y="0" name="bottom"/>
  <anchor x="328" y="714" name="top"/>
  <anchor x="596" y="714" name="topright"/>
  <outline>
    <contour>
      <point x="311" y="109" type="line"/>
      <point x="525" y="283" type="line"/>
      <point x="492" y="322" type="line"/>
      <point x="277" y="150" type="line"/>
    </contour>
    <contour>
      <point x="22" y="537" type="line"/>
      <point x="309" y="537" type="line"/>
      <point x="309" y="591" type="line"/>
      <point x="22" y="591" type="line"/>
    </contour>
    <component base="K"/>
  </outline>
</glyph>
<glyph name="uniA745" format="2">
  <advance width="639"/>
  <unicode hex="A745"/>
  <anchor x="262" y="0" name="bottom"/>
  <anchor x="140" y="760" name="top"/>
  <anchor x="390" y="890" name="topright"/>
  <outline>
    <contour>
      <point x="271" y="84" type="line"/>
      <point x="481" y="236" type="line"/>
      <point x="447" y="279" type="line"/>
      <point x="237" y="129" type="line"/>
    </contour>
    <contour>
      <point x="17" y="583" type="line"/>
      <point x="333" y="583" type="line"/>
      <point x="333" y="639" type="line"/>
      <point x="17" y="639" type="line"/>
    </contour>
    <component base="k"/>
  </outline>
</glyph>
<glyph name="uniA748" format="2">
  <advance width="654"/>
  <unicode hex="A748"/>
  <anchor x="268" y="0" name="bottom"/>
  <anchor x="169" y="357" name="center"/>
  <anchor x="160" y="714" name="top"/>
  <anchor x="515" y="714" name="topright"/>
  <outline>
    <contour>
      <point x="15" y="534" type="line"/>
      <point x="315" y="534" type="line"/>
      <point x="315" y="590" type="line"/>
      <point x="15" y="590" type="line"/>
    </contour>
    <component base="L"/>
  </outline>
</glyph>
<glyph name="uniA749" format="2">
  <advance width="296"/>
  <unicode hex="A749"/>
  <anchor x="146" y="0" name="bottom"/>
  <anchor x="146" y="268" name="center"/>
  <anchor x="146" y="760" name="top"/>
  <anchor x="264" y="760" name="topright"/>
  <outline>
    <contour>
      <point x="14" y="584" type="line"/>
      <point x="275" y="584" type="line"/>
      <point x="275" y="637" type="line"/>
      <point x="14" y="637" type="line"/>
    </contour>
    <component base="l"/>
  </outline>
</glyph>
<glyph name="uniA74A" format="2">
  <advance width="786"/>
  <unicode hex="A74A"/>
  <anchor x="323" y="0" name="bottom"/>
  <anchor x="323" y="357" name="center"/>
  <anchor x="323" y="714" name="top"/>
  <anchor x="626" y="714" name="topright"/>
  <outline>
    <contour>
      <point x="0" y="342" type="line"/>
      <point x="643" y="342" type="line"/>
      <point x="643" y="403" type="line"/>
      <point x="0" y="403" type="line"/>
    </contour>
    <component base="O"/>
  </outline>
</glyph>
<glyph name="uniA750" format="2">
  <advance width="523"/>
  <unicode hex="A750"/>
  <anchor x="166" y="0" name="bottom"/>
  <anchor x="262" y="714" name="top"/>
  <anchor x="541" y="714" name="topright"/>
  <outline>
    <contour>
      <point x="22" y="143" type="line"/>
      <point x="323" y="143" type="line"/>
      <point x="323" y="197" type="line"/>
      <point x="22" y="197" type="line"/>
    </contour>
    <component base="P"/>
  </outline>
</glyph>
<glyph name="uniA751" format="2">
  <advance width="529"/>
  <unicode hex="A751"/>
  <anchor x="149" y="-230" name="bottom"/>
  <anchor x="265" y="536" name="top"/>
  <anchor x="516" y="536" name="topright"/>
  <outline>
    <contour>
      <point x="10" y="-115" type="line"/>
      <point x="305" y="-115" type="line"/>
      <point x="305" y="-63" type="line"/>
      <point x="10" y="-63" type="line"/>
    </contour>
    <component base="p"/>
  </outline>
</glyph>
<glyph name="uniA756" format="2">
  <advance width="786"/>
  <unicode hex="A756"/>
  <anchor x="323" y="-233" name="bottom"/>
  <anchor x="323" y="714" name="top"/>
  <anchor x="626" y="714" name="topright"/>
  <outline>
    <contour>
      <point x="233" y="-203" type="line"/>
      <point x="519" y="-82" type="line"/>
      <point x="499" y="-32" type="line"/>
      <point x="214" y="-151" type="line"/>
    </contour>
    <component base="Q"/>
  </outline>
</glyph>
<glyph name="uniA75E" format="2">
  <advance width="571"/>
  <unicode hex="A75E"/>
  <anchor x="286" y="0" name="bottom"/>
  <anchor x="316" y="714" name="top"/>
  <anchor x="551" y="714" name="topright"/>
  <outline>
    <contour>
      <point x="100" y="0" type="line"/>
      <point x="148" y="0" type="line"/>
      <point x="358" y="714" type="line"/>
      <point x="310" y="714" type="line"/>
    </contour>
    <component base="V"/>
  </outline>
</glyph>
<glyph name="uniA767" format="2">
  <advance width="529"/>
  <unicode hex="A767"/>
  <anchor x="265" y="-240" name="bottom"/>
  <anchor x="265" y="760" name="top"/>
  <outline>
    <contour>
      <point x="10" y="-115" type="line"/>
      <point x="305" y="-115" type="line"/>
      <point x="305" y="-63" type="line"/>
      <point x="10" y="-63" type="line"/>
    </contour>
    <component base="thorn"/>
  </outline>
</glyph>
<glyph name="uniA792" format="2">
  <advance width="568"/>
  <unicode hex="A792"/>
  <anchor x="333" y="0" name="bottom"/>
  <anchor x="343" y="714" name="top"/>
  <anchor x="548" y="714" name="topright"/>
  <outline>
    <contour>
      <point x="-3" y="335" type="line"/>
      <point x="305" y="335" type="line"/>
      <point x="305" y="395" type="line"/>
      <point x="-3" y="395" type="line"/>
    </contour>
    <component base="C" xOffset="17"/>
  </outline>
</glyph>
<glyph name="uniA793" format="2">
  <advance width="479"/>
  <unicode hex="A793"/>
  <anchor x="279" y="0" name="bottom"/>
  <anchor x="282" y="536" name="top"/>
  <anchor x="455" y="536" name="topright"/>
  <outline>
    <contour>
      <point x="14" y="247" type="line"/>
      <point x="299" y="247" type="line"/>
      <point x="299" y="304" type="line"/>
      <point x="14" y="304" type="line"/>
    </contour>
    <component base="c" xOffset="42"/>
  </outline>
</glyph>
<glyph name="uniA799" format="2">
  <advance width="336"/>
  <unicode hex="A799"/>
  <anchor x="168" y="0" name="bottom"/>
  <anchor x="231" y="770" name="top"/>
  <anchor x="399" y="770" name="topright"/>
  <outline>
    <contour>
      <point x="19" y="241" type="line"/>
      <point x="324" y="241" type="line"/>
      <point x="324" y="304" type="line"/>
      <point x="19" y="304" type="line"/>
    </contour>
    <component base="f"/>
  </outline>
</glyph>
<glyph name="uniA7A0" format="2">
  <advance width="768"/>
  <unicode hex="A7A0"/>
  <anchor x="343" y="0" name="bottom"/>
  <anchor x="352" y="714" name="top"/>
  <anchor x="612" y="714" name="topright"/>
  <outline>
    <contour>
      <point x="0" y="225" type="line"/>
      <point x="622" y="379" type="line"/>
      <point x="622" y="436" type="line"/>
      <point x="0" y="282" type="line"/>
    </contour>
    <component base="G"/>
  </outline>
</glyph>
<glyph name="uniA7A1" format="2">
  <advance width="458"/>
  <unicode hex="A7A1"/>
  <anchor x="223" y="-236" name="bottom"/>
  <anchor x="216" y="536" name="top"/>
  <anchor x="462" y="536" name="topright"/>
  <outline>
    <contour>
      <point x="-9" y="290" type="line"/>
      <point x="451" y="384" type="line"/>
      <point x="451" y="439" type="line"/>
      <point x="-9" y="345" type="line"/>
    </contour>
    <component base="g"/>
  </outline>
</glyph>
<glyph name="uniA7A2" format="2">
  <advance width="749"/>
  <unicode hex="A7A2"/>
  <anchor x="338" y="0" name="bottom"/>
  <anchor x="328" y="714" name="top"/>
  <anchor x="596" y="714" name="topright"/>
  <outline>
    <contour>
      <point x="26" y="113" type="line"/>
      <point x="574" y="246" type="line"/>
      <point x="574" y="303" type="line"/>
      <point x="26" y="170" type="line"/>
    </contour>
    <component base="K"/>
  </outline>
</glyph>
<glyph name="uniA7A6" format="2">
  <advance width="712"/>
  <unicode hex="A7A6"/>
  <anchor x="323" y="0" name="bottom"/>
  <anchor x="293" y="714" name="top"/>
  <anchor x="566" y="714" name="topright"/>
  <outline>
    <contour>
      <point x="26" y="409" type="line"/>
      <point x="585" y="546" type="line"/>
      <point x="585" y="603" type="line"/>
      <point x="26" y="466" type="line"/>
    </contour>
    <component base="R"/>
  </outline>
</glyph>
<glyph name="uniA7A7" format="2">
  <advance width="431"/>
  <unicode hex="A7A7"/>
  <anchor x="152" y="0" name="bottom"/>
  <anchor x="222" y="536" name="top"/>
  <anchor x="428" y="536" name="topright"/>
  <outline>
    <contour>
      <point x="10" y="175" type="line"/>
      <point x="313" y="241" type="line"/>
      <point x="313" y="295" type="line"/>
      <point x="10" y="229" type="line"/>
    </contour>
    <component base="r"/>
  </outline>
</glyph>
<glyph name="uniA7B9" format="2">
  <advance width="548"/>
  <unicode hex="A7B9"/>
  <anchor x="433" y="0" name="bottom"/>
  <anchor x="274" y="536" name="top"/>
  <anchor x="515" y="536" name="topright"/>
  <outline>
    <contour>
      <point x="49" y="-11" type="line"/>
      <point x="106" y="-11" type="line"/>
      <point x="512" y="581" type="line"/>
      <point x="455" y="581" type="line"/>
    </contour>
    <component base="u"/>
  </outline>
</glyph>
<glyph name="uniA7C3" format="2">
  <advance width="740"/>
  <unicode hex="A7C3"/>
  <outline>
    <contour>
      <point x="67" y="437" type="curve" smooth="yes"/>
      <point x="196" y="0" type="line"/>
      <point x="312" y="0" type="line"/>
      <point x="450" y="405" type="line" smooth="yes"/>
      <point x="470" y="462"/>
      <point x="488" y="488"/>
      <point x="522" y="488" type="curve" smooth="yes"/>
      <point x="549" y="488"/>
      <point x="564" y="461"/>
      <point x="564" y="406" type="curve" smooth="yes"/>
      <point x="564" y="356"/>
      <point x="550" y="323"/>
      <point x="520" y="310" type="curve"/>
      <point x="504" y="314"/>
      <point x="490" y="316"/>
      <point x="481" y="316" type="curve" smooth="yes"/>
      <point x="457" y="316"/>
      <point x="445" y="304"/>
      <point x="445" y="287" type="curve" smooth="yes"/>
      <point x="445" y="271"/>
      <point x="459" y="260"/>
      <point x="480" y="260" type="curve" smooth="yes"/>
      <point x="489" y="260"/>
      <point x="505" y="262"/>
      <point x="521" y="267" type="curve"/>
      <point x="565" y="251"/>
      <point x="587" y="215"/>
      <point x="587" y="149" type="curve" smooth="yes"/>
      <point x="587" y="83"/>
      <point x="560" y="45"/>
      <point x="513" y="45" type="curve" smooth="yes"/>
      <point x="506" y="45" type="line"/>
      <point x="420" y="205"/>
      <point x="391" y="294"/>
      <point x="391" y="378" type="curve" smooth="yes"/>
      <point x="391" y="463"/>
      <point x="400" y="520"/>
      <point x="420" y="588" type="curve"/>
      <point x="296" y="588" type="line"/>
      <point x="282" y="525"/>
      <point x="276" y="467"/>
      <point x="276" y="409" type="curve" smooth="yes"/>
      <point x="276" y="268"/>
      <point x="320" y="141"/>
      <point x="397" y="0" type="curve"/>
      <point x="515" y="0" type="line" smooth="yes"/>
      <point x="646" y="0"/>
      <point x="701" y="55"/>
      <point x="701" y="149" type="curve" smooth="yes"/>
      <point x="701" y="222"/>
      <point x="665" y="271"/>
      <point x="587" y="290" type="curve"/>
      <point x="655" y="314"/>
      <point x="680" y="357"/>
      <point x="680" y="416" type="curve" smooth="yes"/>
      <point x="680" y="492"/>
      <point x="631" y="541"/>
      <point x="536" y="541" type="curve" smooth="yes"/>
      <point x="457" y="541"/>
      <point x="427" y="502"/>
      <point x="396" y="409" type="curve" smooth="yes"/>
      <point x="288" y="81" type="line"/>
      <point x="279" y="120"/>
      <point x="263" y="177"/>
      <point x="251" y="219" type="curve" smooth="yes"/>
      <point x="199" y="405" type="line" smooth="yes"/>
      <point x="195" y="421"/>
      <point x="191" y="437"/>
      <point x="191" y="454" type="curve" smooth="yes"/>
      <point x="191" y="474"/>
      <point x="201" y="487"/>
      <point x="228" y="487" type="curve" smooth="yes"/>
      <point x="250" y="487" type="line"/>
      <point x="250" y="536" type="line"/>
      <point x="5" y="536" type="line"/>
      <point x="5" y="487" type="line"/>
      <point x="41" y="487"/>
      <point x="55" y="477"/>
    </contour>
  </outline>
</glyph>
<glyph name="uniA7C7" format="2">
  <advance width="629"/>
  <unicode hex="A7C7"/>
  <anchor x="305" y="0" name="bottom"/>
  <anchor x="315" y="357" name="center"/>
  <anchor x="307" y="714" name="top"/>
  <anchor x="609" y="714" name="topright"/>
  <outline>
    <contour>
      <point x="128" y="342" type="line"/>
      <point x="555" y="342" type="line"/>
      <point x="555" y="391" type="line"/>
      <point x="128" y="391" type="line"/>
    </contour>
    <component base="D"/>
  </outline>
</glyph>
<glyph name="uniA7C8" format="2">
  <advance width="533"/>
  <unicode hex="A7C8"/>
  <anchor x="267" y="0" name="bottom"/>
  <anchor x="267" y="268" name="center"/>
  <anchor x="382" y="760" name="top"/>
  <anchor x="509" y="760" name="topright"/>
  <outline>
    <contour>
      <point x="66" y="250" type="line"/>
      <point x="421" y="250" type="line"/>
      <point x="421" y="296" type="line"/>
      <point x="66" y="296" type="line"/>
    </contour>
    <component base="d"/>
  </outline>
</glyph>
<glyph name="uniA7C9" format="2">
  <advance width="474"/>
  <unicode hex="A7C9"/>
  <anchor x="237" y="0" name="bottom"/>
  <anchor x="247" y="714" name="top"/>
  <anchor x="454" y="714" name="topright"/>
  <outline>
    <contour>
      <point x="17" y="344" type="line"/>
      <point x="456" y="344" type="line"/>
      <point x="456" y="393" type="line"/>
      <point x="17" y="393" type="line"/>
    </contour>
    <component base="S"/>
  </outline>
</glyph>
<glyph name="uniA7CA" format="2">
  <advance width="394"/>
  <unicode hex="A7CA"/>
  <anchor x="197" y="0" name="bottom"/>
  <anchor x="197" y="536" name="top"/>
  <anchor x="370" y="536" name="topright"/>
  <outline>
    <contour>
      <point x="15" y="260" type="line"/>
      <point x="379" y="260" type="line"/>
      <point x="379" y="306" type="line"/>
      <point x="15" y="306" type="line"/>
    </contour>
    <component base="s"/>
  </outline>
</glyph>
<glyph name="uniAB30" format="2">
  <advance width="532"/>
  <unicode hex="AB30"/>
  <anchor x="266" y="0" name="bottom"/>
  <anchor x="266" y="536" name="top"/>
  <outline>
    <contour>
      <point x="-19" y="259" type="line"/>
      <point x="518" y="259" type="line"/>
      <point x="518" y="309" type="line"/>
      <point x="-19" y="309" type="line"/>
    </contour>
    <component base="uni0251"/>
  </outline>
</glyph>
<glyph name="uniAB69" format="2">
  <advance width="454"/>
  <unicode hex="AB69"/>
  <anchor x="213.5" y="287.4" name="bottom"/>
  <anchor x="-3.6" y="287.4" name="bottomleft"/>
  <anchor x="227.15" y="609" name="top"/>
  <outline>
    <contour>
      <point x="289" y="609" type="line"/>
      <point x="230" y="393" type="line"/>
      <point x="175" y="609" type="line"/>
      <point x="115" y="609" type="line"/>
      <point x="46" y="364" type="line" smooth="yes"/>
      <point x="36" y="325"/>
      <point x="28" y="317"/>
      <point x="7" y="317" type="curve" smooth="yes"/>
      <point x="0" y="317" type="line"/>
      <point x="0" y="287" type="line"/>
      <point x="121" y="287" type="line"/>
      <point x="121" y="317" type="line"/>
      <point x="117" y="317" type="line" smooth="yes"/>
      <point x="95" y="317"/>
      <point x="84" y="326"/>
      <point x="84" y="346" type="curve" smooth="yes"/>
      <point x="84" y="353"/>
      <point x="86" y="366"/>
      <point x="89" y="376" type="curve" smooth="yes"/>
      <point x="111" y="467" type="line" smooth="yes"/>
      <point x="119" y="495"/>
      <point x="123" y="519"/>
      <point x="125" y="538" type="curve"/>
      <point x="127" y="538" type="line"/>
      <point x="128" y="521"/>
      <point x="135" y="488"/>
      <point x="141" y="467" type="curve" smooth="yes"/>
      <point x="191" y="290" type="line"/>
      <point x="225" y="290" type="line"/>
      <point x="279" y="464" type="line" smooth="yes"/>
      <point x="286" y="487"/>
      <point x="293" y="518"/>
      <point x="296" y="538" type="curve"/>
      <point x="298" y="538" type="line"/>
      <point x="301" y="519"/>
      <point x="308" y="482"/>
      <point x="314" y="454" type="curve" smooth="yes"/>
      <point x="331" y="368" type="line" smooth="yes"/>
      <point x="333" y="359"/>
      <point x="336" y="349"/>
      <point x="336" y="342" type="curve" smooth="yes"/>
      <point x="336" y="322"/>
      <point x="325" y="317"/>
      <point x="304" y="317" type="curve" smooth="yes"/>
      <point x="298" y="317" type="line"/>
      <point x="298" y="287" type="line"/>
      <point x="455" y="287" type="line"/>
      <point x="455" y="317" type="line"/>
      <point x="454" y="317" type="line" smooth="yes"/>
      <point x="433" y="317"/>
      <point x="423" y="323"/>
      <point x="416" y="349" type="curve" smooth="yes"/>
      <point x="348" y="609" type="line"/>
    </contour>
  </outline>
</glyph>
<glyph name="tbar.sc" format="2">
  <advance width="476"/>
  <anchor x="238" y="0" name="bottom"/>
  <anchor x="238" y="571" name="top"/>
  <anchor x="238" y="286" name="center"/>
  <anchor x="456" y="571" name="topright"/>
  <outline>
    <contour>
      <point x="85" y="256" type="line"/>
      <point x="394" y="256" type="line"/>
      <point x="394" y="309" type="line"/>
      <point x="85" y="309" type="line"/>
    </contour>
    <component base="t.sc"/>
  </outline>
</glyph>
